<svg xmlns="http://www.w3.org/2000/svg" viewBox="0 0 128 128" width="128" height="128">
  <defs>
    <!-- Facet Gradients -->
    <linearGradient id="tableGrad" x1="0%" y1="0%" x2="100%" y2="100%">
      <stop offset="0%" stop-color="#FFFFFF" />
      <stop offset="45%" stop-color="#E0F2FE" />
      <stop offset="100%" stop-color="#BAE6FD" />
    </linearGradient>

    <linearGradient id="starLeft" x1="0%" y1="0%" x2="100%" y2="100%">
      <stop offset="0%" stop-color="#FFFFFF" />
      <stop offset="100%" stop-color="#7DD3FC" />
    </linearGradient>

    <linearGradient id="starRight" x1="100%" y1="0%" x2="0%" y2="100%">
      <stop offset="0%" stop-color="#FFFFFF" />
      <stop offset="60%" stop-color="#38BDF8" />
      <stop offset="100%" stop-color="#818CF8" />
    </linearGradient>

    <linearGradient id="centerKite" x1="50%" y1="0%" x2="50%" y2="100%">
      <stop offset="0%" stop-color="#FFFFFF" />
      <stop offset="70%" stop-color="#E2E8F0" />
      <stop offset="100%" stop-color="#94A3B8" />
    </linearGradient>

    <linearGradient id="pavilionLeft" x1="0%" y1="0%" x2="100%" y2="100%">
      <stop offset="0%" stop-color="#E0F2FE" />
      <stop offset="60%" stop-color="#38BDF8" />
      <stop offset="100%" stop-color="#0284C7" />
    </linearGradient>

    <linearGradient id="pavilionCenter" x1="0%" y1="0%" x2="0%" y2="100%">
      <stop offset="0%" stop-color="#FFFFFF" />
      <stop offset="50%" stop-color="#CBD5E1" />
      <stop offset="100%" stop-color="#0F172A" />
    </linearGradient>

    <linearGradient id="pavilionRight" x1="100%" y1="0%" x2="0%" y2="100%">
      <stop offset="0%" stop-color="#F0F9FF" />
      <stop offset="40%" stop-color="#C084FC" />
      <stop offset="100%" stop-color="#6366F1" />
    </linearGradient>

    <linearGradient id="rimGrad" x1="0%" y1="0%" x2="100%" y2="100%">
      <stop offset="0%" stop-color="#38BDF8" stop-opacity="0.8" />
      <stop offset="50%" stop-color="#818CF8" stop-opacity="0.3" />
      <stop offset="100%" stop-color="#F472B6" stop-opacity="0.6" />
    </linearGradient>

    <filter id="diamondGlow" x="-20%" y="-20%" width="140%" height="140%">
      <feDropShadow dx="0" dy="4" stdDeviation="6" flood-color="#38BDF8" flood-opacity="0.35" />
    </filter>
  </defs>

  <style>
    .bg-badge { fill: #000000; }
    .facet-border { stroke: rgba(255, 255, 255, 0.4); stroke-width: 0.75; stroke-linejoin: round; }
  </style>

  <!-- Luxury Obsidian Rounded Squircle Badge -->
  <rect class="bg-badge" x="4" y="4" width="120" height="120" rx="28" stroke="url(#rimGrad)" stroke-width="1.5" />

  <!-- Brilliant Cut Diamond -->
  <g filter="url(#diamondGlow)" class="facet-border">
    <!-- CROWN FACETS -->
    <!-- Table Facet (Top Center) -->
    <polygon points="44,38 84,38 98,54 30,54" fill="url(#tableGrad)" />

    <!-- Upper Crown Left -->
    <polygon points="12,54 30,54 44,38 34,38" fill="url(#starLeft)" opacity="0.9" />

    <!-- Upper Crown Right -->
    <polygon points="84,38 94,38 116,54 98,54" fill="url(#starRight)" opacity="0.95" />

    <!-- Crown Center Kite -->
    <polygon points="44,38 64,54 84,38 64,34" fill="#FFFFFF" opacity="0.95" />

    <!-- Star Left Middle -->
    <polygon points="30,54 64,54 44,38" fill="url(#starLeft)" opacity="0.85" />

    <!-- Star Right Middle -->
    <polygon points="64,54 98,54 84,38" fill="url(#starRight)" opacity="0.85" />

    <!-- GIRDLE POINTS: (12, 54) to (116, 54) -->
    <!-- PAVILION FACETS (Lower Cone to Culet at 64, 98) -->
    <!-- Outer Left Pavilion -->
    <polygon points="12,54 34,54 64,98" fill="url(#pavilionLeft)" opacity="0.95" />

    <!-- Mid Left Pavilion -->
    <polygon points="34,54 52,54 64,98" fill="#F8FAFC" opacity="0.9" />

    <!-- Center Pavilion Core -->
    <polygon points="52,54 76,54 64,98" fill="url(#pavilionCenter)" />

    <!-- Mid Right Pavilion -->
    <polygon points="76,54 94,54 64,98" fill="#F1F5F9" opacity="0.9" />

    <!-- Outer Right Pavilion -->
    <polygon points="94,54 116,54 64,98" fill="url(#pavilionRight)" opacity="0.95" />
  </g>

  <!-- Sparkle Flare Starburst (Top Right) -->
  <g transform="translate(94, 38)">
    <polygon points="0,-12 3,-3 12,0 3,3 0,12 -3,3 -12,0 -3,-3" fill="#FFFFFF" />
    <circle cx="0" cy="0" r="2.5" fill="#E0F2FE" />
  </g>

  <!-- Sparkle Flare Small (Left Girdle) -->
  <g transform="translate(18, 54) scale(0.6)">
    <polygon points="0,-10 2.5,-2.5 10,0 2.5,2.5 0,10 -2.5,2.5 -10,0 -2.5,-2.5" fill="#FFFFFF" opacity="0.9" />
  </g>
</svg>